PathFileType	4	(x/y/z)	S06_PSF_T05
DataRate	CameraRate	NumFrames	NumMarkers	Units	OrigDataRate	OrigDataStartFrame	OrigNumFrames
240	240	4	51	mm	240	1	397
Frame#	Time	Sternum			R.Acromium			L.Acromium			Top.Head			R.ASIS			L.ASIS			R.PSIS			L.PSIS			R.Great.Tro			L.Great.Tro			R.Iliac.Crest			L.Iliac.Crest			V.Sacral			R.Thigh.Upper.Post			R.Thigh.Lower.Ant			R.Thigh.Lower.Post			R.Thigh.Upper.Ant			R.Knee.Lat			R.Knee.Med			R.Shank.Upper.Post			R.Shank.Lower.Ant			R.Shank.Lower.Post			R.Shank.Upper.Ant			R.Ankle.Lat			R.Ankle.Med			R.Heel.Upper			R.Heel.Med			R.Heel.Lat			R.Toe.Lat			R.Toe.Med			R.Toe.Tip			L.Thigh.Upper.Post			L.Thigh.Lower.Ant			L.Thigh.Lower.Post			L.Thigh.Upper.Ant			L.Knee.Lat			L.Knee.Med			L.Shank.Upper.Post			L.Shank.Lower.Ant			L.Shank.Lower.Post			L.Shank.Upper.Ant			L.Ankle.Lat			L.Ankle.Med			L.Heel.Upper			L.Heel.Med			L.Heel.Lat			L.Toe.Lat			L.Toe.Med			L.Toe.Tip			Cervical.Spine			Back			
		X1	Y1	Z1	X2	Y2	Z2	X3	Y3	Z3	X4	Y4	Z4	X5	Y5	Z5	X6	Y6	Z6	X7	Y7	Z7	X8	Y8	Z8	X9	Y9	Z9	X10	Y10	Z10	X11	Y11	Z11	X12	Y12	Z12	X13	Y13	Z13	X14	Y14	Z14	X15	Y15	Z15	X16	Y16	Z16	X17	Y17	Z17	X18	Y18	Z18	X19	Y19	Z19	X20	Y20	Z20	X21	Y21	Z21	X22	Y22	Z22	X23	Y23	Z23	X24	Y24	Z24	X25	Y25	Z25	X26	Y26	Z26	X27	Y27	Z27	X28	Y28	Z28	X29	Y29	Z29	X30	Y30	Z30	X31	Y31	Z31	X32	Y32	Z32	X33	Y33	Z33	X34	Y34	Z34	X35	Y35	Z35	X36	Y36	Z36	X37	Y37	Z37	X38	Y38	Z38	X39	Y39	Z39	X40	Y40	Z40	X41	Y41	Z41	X42	Y42	Z42	X43	Y43	Z43	X44	Y44	Z44	X45	Y45	Z45	X46	Y46	Z46	X47	Y47	Z47	X48	Y48	Z48	X49	Y49	Z49	X50	Y50	Z50	X51	Y51	Z51	

1	0	NaN	NaN	NaN	-1560.9	1483.2	539.79	-1600.8	1485.7	190.68	-1541.7	1800	356.48	NaN	NaN	NaN	NaN	NaN	NaN	-1691.8	1060.5	398.24	-1695	1062.4	318.26	-1565.4	969.99	544.25	-1578.4	963.62	184.73	-1586.5	1119.6	525.07	-1563.2	1112.6	203.78	-1706.8	1027.5	362.96	-1626.2	731.94	518.62	-1579	644.47	480.92	-1667.2	653.96	494.91	-1553.3	722.97	501.91	-1680.4	539.25	478.23	-1660.6	546.76	349.86	-1799.3	338.54	460.82	-1757.8	256.87	438.82	-1826.2	268.32	441.36	-1730.1	326.52	455.11	-1839.4	134.9	413.1	-1828.2	146.2	327.43	-1919.4	105.13	360.34	-1912.9	72.23	330.72	-1918.4	73.955	394.67	-1743.4	43.747	443.09	-1711.4	48.88	320.51	-1648.4	51.622	370.7	-1439.7	725.55	203.98	NaN	NaN	NaN	-1432.6	636.91	224.8	-1387.7	756.71	244.44	-1415.6	547.75	243.76	NaN	NaN	NaN	-1382.3	320.03	251.81	-1300.4	284.13	249.41	-1362.4	249.93	267.69	-1323	351.22	239.29	-1266.7	132.1	262.62	-1262	159.19	351.69	NaN	NaN	NaN	-1299.1	38.7	343.49	-1299.3	38.796	281.95	-1138.8	110.85	238.69	NaN	NaN	NaN	-1064.2	172.6	299.27	-1637.7	1539.1	370.7	-1693	1266.1	371.89
2	0.0041667	NaN	NaN	NaN	-1556	1482.7	539.47	-1596.1	1485.3	190.36	-1537.1	1799.6	356.24	NaN	NaN	NaN	NaN	NaN	NaN	-1686.7	1060.1	397.92	-1690.1	1061.9	317.97	-1560.4	969.72	543.89	-1573.7	962.92	184.63	-1581.1	1119.1	524.72	-1558.2	1112	203.46	-1701.7	1027.1	362.69	-1621.3	731.71	518.53	-1574	644.14	481.17	-1662	653.57	494.98	-1544.5	723.97	499.31	-1675.2	538.84	478.33	-1655.5	546.19	350.07	-1793.9	338.71	461.84	-1748.9	260.38	435.92	-1823.1	269.17	441.81	-1727	326.63	455.29	-1839.2	136.4	413.1	-1827.1	147.36	327.66	-1918.6	107.11	360.62	-1912.3	74.229	330.91	-1917.8	75.828	394.87	-1743.3	43.741	443.08	-1711.4	48.822	320.71	-1648.2	51.439	370.69	-1434.6	724.93	204.23	NaN	NaN	NaN	-1427.7	636.32	225.23	-1382.7	756.05	244.69	-1410.8	547.14	244.12	NaN	NaN	NaN	-1379.2	319.2	252.34	-1297.5	282.7	250.29	-1359.9	248.97	268.28	-1319.6	349.94	240.08	-1264.9	130.76	263.54	-1260.5	157.45	352.69	NaN	NaN	NaN	-1298.7	38.229	343.73	-1298.4	38.67	282.23	-1136.6	108.45	240.46	NaN	NaN	NaN	-1062.4	169.31	301.7	-1633	1538.7	370.42	-1688.2	1265.6	371.61
3	0.0083333	NaN	NaN	NaN	-1551	1482.2	539.14	-1591.2	1484.9	190.02	-1532.3	1799.2	355.98	NaN	NaN	NaN	NaN	NaN	NaN	-1681.3	1059.7	397.59	-1684.9	1061.4	317.67	-1555.2	969.46	543.51	-1568.7	962.21	184.54	-1575.5	1118.6	524.35	-1553.1	1111.4	203.11	-1696.5	1026.7	362.4	-1616.2	731.46	518.45	-1568.8	643.78	481.45	-1656.5	653.16	495.08	-1535.7	724.89	496.91	-1669.8	538.42	478.46	-1650.1	545.61	350.29	-1788.5	338.94	462.85	-1745.7	260.37	435.99	-1819.9	270.08	442.29	-1723.7	326.78	455.48	-1839	137.98	413.11	-1826	148.6	327.91	-1917.6	109.22	360.92	-1911.7	76.374	331.12	-1917.2	77.835	395.08	-1743.1	43.734	443.07	-1711.5	48.773	320.92	-1648	51.249	370.68	-1429.3	724.3	204.5	-1362.4	662.56	269.27	-1422.6	635.7	225.68	-1377.4	755.36	244.95	-1405.7	546.52	244.49	NaN	NaN	NaN	-1375.9	318.34	252.88	-1294.5	281.24	251.2	-1357.2	248	268.87	-1316.1	348.63	240.89	-1263.1	129.38	264.47	-1258.9	155.67	353.71	NaN	NaN	NaN	-1298.3	37.783	343.95	-1297.5	38.569	282.5	-1134.5	105.95	242.25	NaN	NaN	NaN	-1060.4	165.87	304.18	-1628.1	1538.2	370.12	-1683.2	1265.1	371.31
4	0.0125	NaN	NaN	NaN	-1545.8	1481.8	538.79	-1586.1	1484.5	189.67	-1527.3	1798.8	355.72	NaN	NaN	NaN	NaN	NaN	NaN	-1675.8	1059.3	397.23	-1679.5	1061	317.34	-1549.7	969.2	543.11	-1563.5	961.49	184.43	-1569.7	1118.2	523.97	-1547.7	1110.9	202.75	-1691	1026.3	362.1	-1610.8	731.21	518.38	-1563.4	643.4	481.75	-1650.8	652.74	495.2	-1527.1	725.69	494.78	-1664.2	537.98	478.6	-1644.5	545.02	350.53	-1783	339.24	463.84	-1743.1	261.07	436.12	-1816.6	271.06	442.78	-1720.2	326.96	455.69	-1838.6	139.66	413.15	-1824.7	149.91	328.18	-1916.7	111.47	361.24	-1911.1	78.668	331.34	-1916.5	79.975	395.31	-1742.9	43.726	443.06	-1711.5	48.735	321.12	-1647.8	51.055	370.68	-1423.8	723.65	204.78	-1357.5	662.04	269.65	-1417.3	635.08	226.14	-1371.9	754.66	245.21	-1400.6	545.89	244.87	NaN	NaN	NaN	-1372.5	317.48	253.41	-1291.4	279.76	252.11	-1354.5	247.02	269.45	-1312.4	347.32	241.71	-1261.1	128	265.39	-1257.2	153.87	354.73	NaN	NaN	NaN	-1297.9	37.373	344.17	-1296.5	38.498	282.76	-1132.2	103.38	244.04	NaN	NaN	NaN	-1058.4	162.32	306.65	-1623	1537.7	369.8	-1677.9	1264.6	371
